<svg width="76" height="72" viewBox="0 0 76 72" fill="none" xmlns="http://www.w3.org/2000/svg">
<path d="M6.09708 56C7.29708 60 7.59708 68 7.59708 71.5L21.0971 71C20.7637 69.3333 20.0971 65.2 20.0971 62C20.0971 58 22.5971 46 22.5971 45C22.5971 44 26.0968 30.5 26.0971 29.5C26.0973 28.5 26.0971 16 25.5971 13.5C25.1971 11.5 25.7637 4.33333 26.0971 1L2.59708 0.5C2.19708 1.3 1.76375 3.5 1.59708 4.5C-0.154828 9.56082 -0.19809 28.0544 1.09708 33C1.60377 34.9348 2.76375 42.5 3.59708 46C3.93041 47.6667 4.89708 52 6.09708 56Z" fill="url(#paint0_radial_612_10330)"/>
<path d="M69.1959 56C67.9959 60 67.6959 68 67.6959 71.5L54.1959 71C54.5292 69.3333 55.1959 65.2 55.1959 62C55.1959 58 52.6959 46 52.6959 45C52.6959 44 49.1961 30.5 49.1959 29.5C49.1957 28.5 49.1959 16 49.6959 13.5C50.0959 11.5 49.5292 4.33333 49.1959 1L72.6959 0.5C73.0959 1.3 73.5292 3.5 73.6959 4.5C75.4478 9.56082 75.4911 28.0544 74.1959 33C73.6892 34.9348 72.5292 42.5 71.6959 46C71.3626 47.6667 70.3959 52 69.1959 56Z" fill="url(#paint1_radial_612_10330)"/>
<defs>
<radialGradient id="paint0_radial_612_10330" cx="0" cy="0" r="1" gradientUnits="userSpaceOnUse" gradientTransform="translate(13.1462 36) rotate(89.4401) scale(46.0022 65.1132)">
<stop stop-color="#0E5C6D"/>
<stop offset="1" stop-color="#0E5C6D" stop-opacity="0"/>
</radialGradient>
<radialGradient id="paint1_radial_612_10330" cx="0" cy="0" r="1" gradientUnits="userSpaceOnUse" gradientTransform="translate(62.1468 36) rotate(90.5599) scale(46.0022 65.1132)">
<stop stop-color="#0E5C6D"/>
<stop offset="1" stop-color="#0E5C6D" stop-opacity="0"/>
</radialGradient>
</defs>
</svg>
