<svg width="84" height="30" viewBox="0 0 84 30" fill="none" xmlns="http://www.w3.org/2000/svg">
<path d="M70.5003 1L57.1285 0.500054C56.7073 0.485448 56.2503 3.45356 56.0745 4.93944L56.6016 6.9125L57.1285 10C57.1286 10.3288 57.4446 11.4505 56.6016 13.8182C55.7587 16.1859 55.7241 24.8558 56.0753 26.5L57.1285 28C60.5 31 67.4849 29.6919 68.5 28C70 25.5 75 25.5 75 25.5C82.5 22.4678 79.9825 24.0116 81.5 22.5C82.002 22 83.5 21.9798 83.5 20.5C83.5 19.0202 84.0556 18.9798 83.002 17.5C82.159 16.3162 79.0536 16.151 78 15C76.4195 12.3693 71.774 9.47748 71.3525 7.89903C70.9311 6.32058 70.3247 2.64422 70.5003 1Z" fill="url(#paint0_radial_612_10377)"/>
<path d="M9.01234 2.0007L23.4373 1.50005C23.8584 1.48545 23.8242 4.51412 24 6L22.911 7.9132L22.3842 11.0007C22.384 11.3295 22.0681 12.4512 22.911 14.8189C23.7539 17.1866 22.7351 24.3565 22.3839 26.0007L21.0009 27.5007C17.6294 30.5007 12.0158 29.6926 11.0006 28.0007C9.50062 25.5007 5.50062 23.5007 5.50062 23.5007C0.500622 20.5007 1.51262 20.5007 1.51262 20.5007C1.51262 20.5007 1.00062 20.4805 1.00062 19.0007C1.00062 17.5209 0.446987 18.4805 1.50062 17.0007C2.34353 15.8169 1.44699 17.1516 2.50062 16.0007C5.00062 14.0007 7.73862 10.4782 8.16008 8.89973C8.58153 7.32128 9.18795 3.64491 9.01234 2.0007Z" fill="url(#paint1_radial_612_10377)"/>
<defs>
<radialGradient id="paint0_radial_612_10377" cx="0" cy="0" r="1" gradientUnits="userSpaceOnUse" gradientTransform="translate(70.2983 9.87204) rotate(87.8539) scale(28.1359 21.6906)">
<stop stop-color="#0E5C6D"/>
<stop offset="1" stop-color="#0E5C6D" stop-opacity="0"/>
</radialGradient>
<radialGradient id="paint1_radial_612_10377" cx="0" cy="0" r="1" gradientUnits="userSpaceOnUse" gradientTransform="translate(9.21342 10.872) rotate(92.1461) scale(28.1358 21.6906)">
<stop stop-color="#0E5C6D"/>
<stop offset="1" stop-color="#0E5C6D" stop-opacity="0"/>
</radialGradient>
</defs>
</svg>
