<svg width="61" height="67" viewBox="0 0 61 67" fill="none" xmlns="http://www.w3.org/2000/svg">
<path d="M45.5 60C47.4043 61.4999 58 64.5 61 66C38 66.5 21.5 65.5 0 66C1.16667 65.8333 9.21389 62.9389 12.5 62C16 61 17.1667 59.5 17.5 58.5L18.0957 48C17.6957 47.1999 16.929 43.3333 16.5957 41.5C12.9247 40.0892 12.1836 37.5711 12.5957 30L12.0957 14C14.0957 0.5 21.5957 1.50008 22.5957 1.00008C23.5957 0.500076 30.5957 7.55191e-05 37.5957 0.500076C44.5957 1.00008 48.5957 10.0001 49.5957 13.0001C50.3957 15.4001 49.929 25.0001 49.5957 29.5001C51.4875 34.433 50.1665 37.1627 46.0957 42.0001C46.0957 44.4001 44.7624 47.3334 44.0957 48.5001V49.0001C44.0957 52.0001 43.8078 58.6671 45.5 60Z" fill="url(#paint0_radial_612_10277)"/>
<defs>
<radialGradient id="paint0_radial_612_10277" cx="0" cy="0" r="1" gradientUnits="userSpaceOnUse" gradientTransform="translate(30.8457 36.9536) rotate(89.7815) scale(65.5469 45.1454)">
<stop stop-color="#0E5C6D" stop-opacity="0.91"/>
<stop offset="1" stop-color="#0E5C6D" stop-opacity="0"/>
</radialGradient>
</defs>
</svg>
