<svg width="313" height="38" viewBox="0 0 313 38" fill="none" xmlns="http://www.w3.org/2000/svg">
<path d="M312.498 35.5C313.698 35.1 304.332 23.1667 298.999 17L291 9L281.999 1L274.999 9L276.499 10C275.699 11.2 277.833 14.1667 278.999 15.5C279.499 15.6667 279.999 17.1 281.999 21.5C284.499 27 285.999 29 287.499 29C288.699 29 287.666 22.8333 285.999 19.5C287.999 18.7 290.499 20.5 291.499 21.5C292.999 22.5 298.5 27.1667 301 30.5C301.5 31.6667 303.799 35.6 304.999 36C306.199 36.4 304.999 34.6667 304.999 34C307.37 37.3571 308.979 38.5875 310.5 36.5C311.167 36.6667 311.298 35.9 312.498 35.5Z" fill="url(#paint0_radial_612_10523)"/>
<path d="M1 36C-0.2 35.6 8.26209 22.1667 13.5954 16L20.9996 8L28.4996 0L36.0953 7L34.9996 9C35.7996 10.2 34.762 13.1667 33.5953 14.5C33.0953 14.6667 33 17.1 31 21.5C28.5 27 27.9996 28.5 26.4996 28.5C25.2996 28.5 25.3333 22.8333 27 19.5C25 18.7 21.4996 19.5 20.4996 20.5C18.9996 21.5 14.5953 27.1667 12.0953 30.5C11.5953 31.6667 10.6996 33.1 9.49959 33.5C8.29959 33.9 8.49959 33 7.59529 33C5.22465 36.3571 6.52065 37.0875 4.99959 35C4.33297 35.1667 2.2 36.4 1 36Z" fill="url(#paint1_radial_612_10523)"/>
<defs>
<radialGradient id="paint0_radial_612_10523" cx="0" cy="0" r="1" gradientUnits="userSpaceOnUse" gradientTransform="translate(294.3 19.0849) rotate(46.1631) scale(24.8368 13.709)">
<stop stop-color="#0E5C6D"/>
<stop offset="1" stop-color="#0E5C6D" stop-opacity="0"/>
</radialGradient>
<radialGradient id="paint1_radial_612_10523" cx="0" cy="0" r="1" gradientUnits="userSpaceOnUse" gradientTransform="translate(18.2978 18.0849) rotate(133.837) scale(24.8368 13.709)">
<stop stop-color="#0E5C6D"/>
<stop offset="1" stop-color="#0E5C6D" stop-opacity="0"/>
</radialGradient>
</defs>
</svg>
