<svg width="164" height="164" viewBox="0 0 164 164" fill="none" xmlns="http://www.w3.org/2000/svg">
<mask id="mask0_0_1" style="mask-type:alpha" maskUnits="userSpaceOnUse" x="0" y="0" width="164" height="164">
<circle cx="81.7422" cy="81.7422" r="81.7422" fill="#C4C4C4"/>
</mask>
<g mask="url(#mask0_0_1)">
<path opacity="0.1" d="M188.703 98.5193C189.096 95.839 189.319 93.1366 189.371 90.4282C189.777 68.3353 180.529 51.0322 167.753 33.8864C154.557 16.1768 136.321 -1.25992 114.706 -7.66779C109.603 -9.15682 104.239 -9.96347 98.9462 -9.35746C78.9639 -7.10731 59.559 8.53107 35.3267 13.3842C11.0945 18.2374 -10.1822 31.8051 -14.3804 58.1898C-16.1609 69.3618 -15.6129 80.2669 -13.4043 91.3222C-10.6669 104.91 -11.0308 119.861 -5.79063 133.109C-0.282812 147.029 11.5464 160.246 24.7927 167.183C39.9039 175.098 56.8612 170.153 73.0346 170.697C85.7948 171.118 98.2973 174.896 111.064 174.995C130.62 175.153 152.305 167.152 163.706 150.71C174.757 134.734 185.889 117.835 188.703 98.5193Z" fill="#496664"/>
<path opacity="0.1" d="M170.583 28.3823C169.154 26.0808 167.581 23.8719 165.874 21.7689C151.932 4.62581 133.703 -2.62952 112.88 -7.48938C91.3729 -12.5086 66.1904 -14.0683 45.5403 -5.02067C40.6804 -2.86648 36.0618 -0.0229435 32.4083 3.8546C18.5913 18.4643 13.8521 42.9317 -1.53318 62.272C-16.9184 81.6124 -24.4236 105.705 -10.611 128.574C-4.76448 138.259 2.68904 146.238 11.5083 153.261C22.3654 161.878 31.7319 173.536 44.2822 180.279C57.4702 187.362 75.0355 189.83 89.6323 186.586C106.284 182.885 116.051 168.168 128.761 158.151C138.782 150.241 150.773 145.062 160.591 136.902C175.636 124.408 187.045 104.305 185.149 84.387C183.288 65.0509 180.893 44.9566 170.583 28.3823Z" fill="#CED2D9" fill-opacity="0.9"/>
<g opacity="0.5">
<path d="M-28.301 115.132C-26.274 114.364 -22.9477 110.961 -22.6873 110.685C-20.8032 112.658 -18.7936 114.498 -16.672 116.194C-15.4433 117.182 -14.1773 118.146 -12.8586 119.093C-13.5123 118.752 -14.0901 118.448 -14.1735 118.418C-16.5787 117.486 -21.7378 117.144 -23.5396 119.467C-23.8334 119.86 -24.0429 120.313 -24.1542 120.796C-24.2655 121.279 -24.276 121.781 -24.1851 122.268C-24.0942 122.756 -23.9038 123.218 -23.6267 123.625C-23.3496 124.031 -22.9921 124.372 -22.5778 124.625C-20.8716 125.762 -18.3938 125.4 -16.5996 124.713C-14.8054 124.027 -11.8789 121.182 -11.1197 120.417C-10.6242 120.776 -10.1361 121.143 -9.64074 121.494C-7.25498 123.206 -4.8619 124.902 -2.56636 126.638C-1.75796 127.25 -0.986967 127.886 -0.208528 128.514C-0.78627 128.21 -1.27271 127.96 -1.3486 127.93C-3.75378 126.997 -8.91288 126.656 -10.7146 128.978C-11.0008 129.373 -11.2032 129.825 -11.3086 130.306C-11.4141 130.787 -11.4202 131.285 -11.3267 131.769C-11.2332 132.252 -11.042 132.71 -10.7658 133.113C-10.4895 133.515 -10.1342 133.853 -9.72313 134.105C-8.01707 135.234 -5.53921 134.872 -3.74493 134.193C-1.95065 133.514 0.692733 130.931 1.59345 130.031C2.35733 130.698 3.12121 131.365 3.88541 132.055C4.36744 132.532 4.8639 132.961 5.32371 133.468L6.71006 134.945C7.55348 135.907 8.43506 136.899 9.23332 137.869C9.80102 138.539 10.323 139.178 10.8528 139.833C10.0896 139.213 8.46585 138.036 8.32885 137.952C6.047 136.66 1.02761 135.506 -1.08015 137.529C-1.42122 137.873 -1.68809 138.288 -1.86335 138.746C-2.0386 139.204 -2.1183 139.695 -2.09727 140.187C-2.07623 140.679 -1.95491 141.161 -1.74124 141.602C-1.52756 142.042 -1.22633 142.432 -0.857178 142.744C0.67123 144.125 3.16967 144.161 5.04338 143.769C7.11263 143.327 10.7655 140.613 11.2211 140.272C12.0888 141.35 12.9336 142.413 13.7097 143.423C15.8075 146.136 17.5539 148.549 18.9015 150.501L20.579 149.559C19.148 147.585 17.2874 145.103 15.0302 142.314C14.1471 141.213 13.1803 140.058 12.1829 138.88C13.1066 137.731 13.9619 136.526 14.7442 135.27C16.7997 136.02 21.0004 135.814 21.5434 135.791C21.6986 137.191 21.8305 138.544 21.9389 139.836C22.2267 143.189 22.3881 146.13 22.4886 148.489L24.3082 147.459C24.1645 145.249 23.9546 142.619 23.6348 139.68C23.4868 138.257 23.2999 136.748 23.0898 135.194C23.6158 135.03 27.9362 133.662 29.5163 132.223C30.9623 130.918 32.4429 128.841 32.2931 126.733C32.2736 126.24 32.1539 125.757 31.9417 125.316C31.7295 124.874 31.4296 124.483 31.0615 124.168C30.6934 123.854 30.2654 123.623 29.8052 123.49C29.345 123.358 28.8631 123.327 28.3907 123.399C25.5678 123.913 23.3934 128.764 23.0447 131.386C23.0469 131.541 22.9799 133.248 22.9721 134.323C22.8879 133.693 22.804 133.079 22.712 132.426C22.5206 131.136 22.2991 129.854 22.0688 128.478C21.9339 127.821 21.7964 127.153 21.6562 126.475C21.5337 125.799 21.3204 125.109 21.1524 124.418C20.7379 122.819 20.2329 121.23 19.6977 119.633C20.7897 119.469 24.6592 118.785 26.2825 117.742C27.9057 116.7 29.6687 114.853 29.8287 112.771C29.8812 112.281 29.8334 111.786 29.6884 111.316C29.5435 110.846 29.3046 110.413 28.9872 110.044C28.6698 109.676 28.2809 109.38 27.8459 109.176C27.4108 108.972 26.9392 108.865 26.4616 108.861C23.5945 108.901 20.7359 113.388 20.0016 115.96C19.9586 116.124 19.6299 118.006 19.4707 119.044C19.1405 118.083 18.8179 117.129 18.45 116.176C17.4006 113.418 16.2457 110.661 15.1133 107.904L14.0897 105.372C14.4813 105.312 19.098 104.633 20.9154 103.439C22.5308 102.373 24.3017 100.55 24.454 98.4682C24.518 97.9739 24.4793 97.4711 24.3404 96.9933C24.2014 96.5155 23.9655 96.0736 23.6483 95.6971C23.3311 95.3205 22.9399 95.0179 22.5007 94.8095C22.0615 94.601 21.5844 94.4914 21.1012 94.4879C18.2264 94.5276 15.3678 99.0143 14.6406 101.548C14.5829 101.743 14.1223 104.452 14.0338 105.147C13.2534 103.288 12.556 101.421 11.9115 99.5605C11.03 97.0456 10.3064 94.4749 9.7449 91.8644C9.92598 91.8619 14.7536 91.1488 16.6158 89.9236C18.2236 88.8578 19.9945 87.0342 20.1544 84.9525C20.2081 84.4631 20.1614 83.9673 20.0173 83.4976C19.8733 83.0278 19.6351 82.5944 19.3183 82.2257C19.0014 81.8569 18.6131 81.561 18.1783 81.3572C17.7436 81.1533 17.2723 81.0461 16.7949 81.0424C13.9202 81.0821 11.0616 85.5688 10.3344 88.1023C10.2768 88.3055 9.7738 91.2253 9.72076 91.7557C9.71861 91.5999 9.64111 91.453 9.60878 91.2977C9.11554 88.6618 8.84877 85.9862 8.81157 83.3023C8.79114 81.8228 8.81683 80.405 8.88834 79.0254C9.80131 79.0128 13.9641 78.7996 15.7627 77.8868C17.5613 76.9741 19.4262 75.3985 19.8129 73.3448C19.9171 72.8643 19.9224 72.3665 19.8285 71.8836C19.7346 71.4006 19.5435 70.9433 19.2677 70.5412C18.9918 70.1391 18.6373 69.8011 18.2271 69.5491C17.8169 69.2971 17.3601 69.1367 16.8862 69.0783C14.0225 68.8219 10.7058 72.9254 9.7057 75.3692C9.65471 75.5023 9.24432 76.9332 8.98656 77.9415C9.03088 77.3256 9.05968 76.6788 9.11186 76.0861C9.29981 73.8483 9.61137 71.819 9.89588 70.016C10.0629 68.9934 10.2389 68.0797 10.4082 67.2207C11.2915 66.7022 14.8017 64.5898 15.964 62.9538C17.1262 61.3178 18.1134 59.0299 17.5269 56.9975C17.4056 56.5184 17.1876 56.0711 16.8871 55.6849C16.5867 55.2987 16.2105 54.9823 15.7834 54.7565C15.3563 54.5308 14.8878 54.4007 14.4088 54.3749C13.9297 54.3491 13.4508 54.428 13.0036 54.6066C10.3476 55.7337 9.24251 60.9594 9.44497 63.5968C9.4482 63.8304 10.1385 67.3646 10.1833 67.3328L10.2361 67.3321C10.0588 68.1523 9.87479 69.0349 9.69205 70.011C9.36971 71.8068 8.99024 73.837 8.77966 76.0752C8.49734 78.4832 8.35191 80.9063 8.3441 83.3321C8.32367 86.051 8.53797 88.7665 8.98446 91.4465C8.98446 91.4465 8.98532 91.5088 8.98575 91.54C8.59773 90.7665 7.43647 88.6485 7.32879 88.502C5.78984 86.3581 1.69265 83.128 -1.03412 84.0458C-1.48283 84.2122 -1.89256 84.4741 -2.23675 84.8145C-2.58093 85.1549 -2.85187 85.5663 -3.03201 86.0218C-3.21215 86.4774 -3.29745 86.9671 -3.28239 87.459C-3.26733 87.951 -3.15225 88.4343 -2.9446 88.8776C-2.12579 90.79 0.115878 91.9039 2.00131 92.3608C4.10631 92.8691 8.69675 91.9256 9.0655 91.8504C9.58155 94.5649 10.274 97.2405 11.1383 99.8593C11.6351 101.41 12.1766 102.914 12.7108 104.433C12.3546 103.776 12.0296 103.196 11.9757 103.119C10.4368 100.975 6.33956 97.7449 3.6128 98.6626C3.16408 98.829 2.75435 99.0909 2.41016 99.4314C2.06598 99.7718 1.79504 100.183 1.6149 100.639C1.43477 101.094 1.34946 101.584 1.36452 102.076C1.37958 102.568 1.49466 103.051 1.70231 103.494C2.52124 105.415 4.76279 106.521 6.64068 106.978C8.51857 107.435 12.4707 106.718 13.5092 106.509C13.7361 107.09 13.9479 107.671 14.1748 108.252C15.2472 111.041 16.3345 113.814 17.3083 116.566C17.6537 117.535 17.9614 118.504 18.2767 119.473C17.9593 118.893 17.6809 118.406 17.6346 118.337C16.0957 116.193 11.9909 112.963 9.27173 113.881C8.82233 114.046 8.4118 114.308 8.06679 114.648C7.72178 114.988 7.45001 115.399 7.26912 115.855C7.08824 116.31 7.00229 116.8 7.01686 117.293C7.03144 117.785 7.14619 118.269 7.35369 118.713C8.18006 120.625 10.4142 121.739 12.2996 122.196C14.185 122.653 17.7456 121.996 18.98 121.761C19.273 122.762 19.5661 123.762 19.7759 124.748C19.9211 125.424 20.1111 126.068 20.2262 126.752C20.3413 127.435 20.4713 128.103 20.5936 128.764C20.7774 130.054 20.9845 131.383 21.1378 132.65C21.248 133.529 21.3427 134.369 21.4373 135.209C21.0994 134.24 20.4093 132.357 20.3317 132.202C19.2306 130.176 17.6489 128.472 15.7352 127.25C15.6203 127.019 15.4859 126.8 15.3337 126.593C15.0543 126.194 14.6964 125.859 14.2835 125.611C13.8706 125.363 13.4119 125.208 12.9371 125.155C12.4623 125.102 11.9822 125.153 11.5278 125.304C11.0735 125.455 10.6551 125.703 10.2999 126.032C8.21499 128.07 9.00493 133.355 10.1096 135.747C10.1794 135.886 11.0522 137.33 11.6533 138.233C11.2392 137.756 10.8855 137.286 10.4185 136.802C9.57496 135.832 8.70157 134.886 7.7744 133.871L6.3583 132.426C5.89881 131.942 5.3491 131.482 4.82925 130.999C3.62937 129.909 2.36212 128.86 1.06512 127.842C1.88434 127.052 4.78988 124.325 5.51945 122.508C6.24901 120.691 6.79536 118.175 5.81162 116.343C5.59896 115.9 5.29813 115.509 4.92883 115.195C4.55953 114.881 4.13011 114.65 3.66871 114.519C3.20731 114.388 2.72435 114.359 2.25148 114.434C1.77861 114.509 1.32652 114.686 0.924826 114.954C-1.43656 116.646 -1.43811 121.996 -0.693685 124.533C-0.646261 124.688 0.0874097 126.446 0.508084 127.398C-0.254939 126.793 -1.01807 126.181 -1.87142 125.593C-4.21934 123.888 -6.65705 122.24 -9.07213 120.591L-11.2818 119.064C-10.9836 118.795 -7.50344 115.6 -6.62619 113.547C-5.85124 111.738 -5.35028 109.215 -6.33402 107.383C-6.55164 106.949 -6.85482 106.567 -7.22404 106.262C-7.59325 105.956 -8.02032 105.734 -8.47774 105.609C-8.93516 105.483 -9.4128 105.459 -9.87989 105.536C-10.347 105.613 -10.7932 105.79 -11.1898 106.056C-13.5513 107.74 -13.5527 113.098 -12.8008 115.627C-12.7454 115.813 -11.6841 118.345 -11.3887 118.972C-13.0042 117.841 -14.605 116.68 -16.1455 115.517C-18.2273 113.923 -20.2074 112.191 -22.0734 110.334C-21.9393 110.207 -18.2797 106.886 -17.3876 104.817C-16.6126 103.015 -16.1042 100.485 -17.0879 98.6526C-17.3055 98.2138 -17.6101 97.8271 -17.9818 97.5176C-18.3536 97.2081 -18.7843 96.9828 -19.2458 96.8562C-19.7074 96.7296 -20.1895 96.7046 -20.6608 96.7829C-21.1321 96.8612 -21.5821 97.041 -21.9816 97.3106C-24.343 99.0021 -24.3445 104.353 -23.5927 106.881C-23.537 107.083 -22.3901 109.801 -22.1497 110.273L-22.4861 109.958C-24.3091 108.042 -25.9619 105.962 -27.4245 103.741C-28.2488 102.522 -28.9673 101.317 -29.6478 100.127C-28.9007 99.5791 -25.5398 97.0404 -24.5305 95.2585C-23.5212 93.4766 -22.7994 91.099 -23.5807 89.1705C-23.7495 88.7091 -24.0104 88.2895 -24.3465 87.939C-24.6827 87.5884 -25.0865 87.3147 -25.5317 87.1358C-25.977 86.9568 -26.4537 86.8765 -26.9308 86.9001C-27.4079 86.9238 -27.8747 87.0508 -28.301 87.273C-30.8247 88.6864 -31.3927 94.0059 -30.919 96.6085C-30.9171 96.7486 -30.4825 98.1601 -30.1289 99.1755C-30.4231 98.6344 -30.7402 98.078 -31.0116 97.5521C-32.0501 95.5804 -32.8838 93.6838 -33.6082 92.0505C-34.0063 91.098 -34.388 90.231 -34.6709 89.4171C-34.2158 88.4918 -32.4191 84.713 -32.3261 82.7023C-32.2332 80.6916 -32.7057 78.167 -34.2336 76.8251C-34.5893 76.4959 -35.0081 76.2477 -35.4627 76.0964C-35.9173 75.9451 -36.3976 75.8942 -36.8723 75.947C-37.3471 75.9999 -37.8056 76.1552 -38.2182 76.403C-38.6308 76.6508 -38.9882 76.9855 -39.2671 77.3853C-40.8784 79.8375 -39.0058 84.8274 -37.4223 86.9161C-37.2839 87.1011 -34.8336 89.6608 -34.8116 89.6138L-34.8124 89.5593C-34.5224 90.3341 -34.2011 91.1941 -33.8414 92.1082C-33.1465 93.7887 -32.3505 95.6858 -31.3569 97.6893C-30.299 99.8611 -29.1183 101.967 -27.8209 103.996C-26.3857 106.275 -24.7574 108.418 -22.9554 110.401L-22.8865 110.47C-23.6471 110.044 -25.7224 108.951 -25.9272 108.876C-28.3324 107.944 -33.4915 107.602 -35.2857 109.925C-35.5721 110.318 -35.7748 110.769 -35.8808 111.249C-35.9867 111.729 -35.9935 112.227 -35.9007 112.71C-35.8079 113.193 -35.6175 113.65 -35.3421 114.052C-35.0666 114.454 -34.7121 114.792 -34.3018 115.043C-32.5728 116.196 -30.1027 115.819 -28.301 115.132Z" fill="white" fill-opacity="0.91"/>
<path d="M8.50516 78.6022C8.55798 78.6015 7.70223 75.1085 7.62377 74.8915C6.72164 72.4117 3.56139 68.1718 0.688049 68.3127C0.212715 68.3517 -0.24934 68.4931 -0.668284 68.7278C-1.08723 68.9625 -1.45375 69.2853 -1.7442 69.6753C-2.03465 70.0654 -2.24255 70.514 -2.35451 70.9923C-2.46647 71.4705 -2.47999 71.9678 -2.39419 72.452C-2.0863 74.5272 -0.198954 76.2146 1.48943 77.157C3.4669 78.2668 8.49762 78.6023 8.50516 78.6022Z" fill="white" fill-opacity="0.91"/>
<path d="M196.808 112.022C194.76 111.31 191.341 108.001 191.066 107.732C189.239 109.758 187.281 111.653 185.205 113.405C184.004 114.426 182.765 115.425 181.511 116.408C182.148 116.049 182.724 115.729 182.807 115.697C185.185 114.698 190.333 114.214 192.191 116.486C192.487 116.872 192.702 117.318 192.821 117.795C192.939 118.272 192.959 118.77 192.879 119.255C192.799 119.741 192.62 120.203 192.355 120.612C192.09 121.021 191.745 121.368 191.341 121.63C189.667 122.814 187.188 122.521 185.368 121.884C183.548 121.247 180.551 118.485 179.779 117.74L178.322 118.859C175.985 120.635 173.647 122.397 171.4 124.196C170.609 124.83 169.849 125.487 169.088 126.136C169.657 125.816 170.136 125.553 170.219 125.52C172.59 124.522 177.745 124.038 179.603 126.31C179.9 126.696 180.114 127.143 180.233 127.621C180.352 128.098 180.372 128.596 180.292 129.082C180.211 129.568 180.033 130.031 179.768 130.441C179.503 130.851 179.157 131.199 178.753 131.462C177.079 132.638 174.592 132.345 172.78 131.716C170.967 131.087 168.254 128.577 167.328 127.702C166.583 128.39 165.838 129.078 165.093 129.789C164.617 130.279 164.133 130.721 163.687 131.242C163.241 131.762 162.788 132.251 162.349 132.756C161.525 133.74 160.679 134.757 159.9 135.749C159.359 136.434 158.847 137.088 158.336 137.757C159.119 137.115 160.672 135.894 160.814 135.806C163.014 134.452 168.045 133.16 170.2 135.124C170.551 135.458 170.829 135.866 171.017 136.318C171.205 136.771 171.298 137.26 171.291 137.753C171.283 138.245 171.175 138.73 170.974 139.177C170.772 139.623 170.482 140.02 170.122 140.343C168.632 141.766 166.143 141.87 164.252 141.53C162.179 141.146 158.452 138.534 157.987 138.205C157.142 139.307 156.335 140.393 155.579 141.424C153.565 144.193 151.878 146.654 150.585 148.643L148.874 147.747C150.25 145.735 152.049 143.202 154.221 140.352C155.073 139.227 156.008 138.046 156.98 136.841C156.024 135.717 155.133 134.535 154.312 133.303C152.278 134.11 148.073 134.02 147.53 134.012C147.421 135.415 147.319 136.772 147.246 138.066C147.051 141.425 146.971 144.37 146.943 146.73L145.089 145.751C145.171 143.538 145.316 140.904 145.547 137.957C145.663 136.53 145.808 135.017 145.968 133.457C145.437 133.308 141.088 132.06 139.462 130.665C137.988 129.4 136.45 127.365 136.542 125.254C136.547 124.761 136.652 124.275 136.851 123.828C137.05 123.38 137.338 122.981 137.697 122.656C138.056 122.332 138.477 122.089 138.933 121.944C139.389 121.798 139.869 121.754 140.343 121.813C143.187 122.249 145.487 127.038 145.908 129.649C145.91 129.805 146.024 131.509 146.061 132.583C146.136 131.951 146.195 131.335 146.277 130.68C146.425 129.385 146.611 128.097 146.81 126.716C146.922 126.053 147.041 125.381 147.16 124.702C147.279 124.023 147.458 123.327 147.607 122.632C147.984 121.022 148.438 119.419 148.929 117.808C147.833 117.675 143.946 117.098 142.294 116.101C140.643 115.103 138.829 113.306 138.62 111.229C138.552 110.741 138.585 110.245 138.716 109.771C138.847 109.297 139.074 108.858 139.38 108.48C139.687 108.103 140.067 107.796 140.496 107.581C140.925 107.365 141.393 107.245 141.87 107.228C144.745 107.188 147.726 111.594 148.523 114.145C148.578 114.308 148.951 116.18 149.139 117.213C149.443 116.243 149.747 115.281 150.08 114.319C151.061 111.532 152.132 108.745 153.187 105.958C153.515 105.104 153.828 104.251 154.141 103.398C153.755 103.349 149.114 102.797 147.264 101.655C145.627 100.634 143.807 98.8598 143.59 96.7833C143.522 96.2955 143.555 95.7987 143.686 95.3251C143.817 94.8515 144.043 94.4117 144.35 94.0344C144.657 93.657 145.037 93.3505 145.466 93.1347C145.894 92.9189 146.363 92.7987 146.84 92.7819C149.714 92.7422 152.696 97.1482 153.5 99.6605C153.556 99.8544 154.099 102.549 154.199 103.241C154.928 101.362 155.573 99.4761 156.174 97.5986C156.988 95.0605 157.643 92.4708 158.134 89.8454C157.953 89.8479 153.115 89.2683 151.22 88.0951C149.576 87.0742 147.755 85.3002 147.538 83.2237C147.472 82.7355 147.506 82.2385 147.638 81.7649C147.77 81.2913 147.997 80.8517 148.304 80.4745C148.611 80.0973 148.991 79.7909 149.421 79.5751C149.85 79.3594 150.318 79.2392 150.796 79.2223C153.67 79.1825 156.644 83.5886 157.449 86.1009C157.512 86.3026 158.088 89.2074 158.155 89.7361C158.153 89.5804 158.234 89.4313 158.255 89.2752C158.679 86.6271 158.871 83.9449 158.831 81.2609C158.81 79.7813 158.745 78.3647 158.636 76.9877C157.723 77.0003 153.556 76.9021 151.74 76.0393C149.925 75.1766 148.002 73.6533 147.566 71.6109C147.447 71.1334 147.427 70.6356 147.507 70.1498C147.588 69.664 147.766 69.2011 148.031 68.7912C148.295 68.3813 148.641 68.0336 149.045 67.7707C149.448 67.5078 149.901 67.3356 150.374 67.2652C153.229 66.9298 156.658 70.9401 157.718 73.3555C157.78 73.487 158.222 74.9062 158.508 75.9069C158.446 75.2925 158.4 74.6467 158.331 74.0557C158.082 71.8239 157.722 69.8039 157.38 68.0095C157.185 66.992 156.983 66.0835 156.791 65.2295C155.901 64.7355 152.333 62.7209 151.127 61.1176C149.92 59.5143 148.87 57.2546 149.392 55.2068C149.501 54.7273 149.706 54.2768 149.994 53.8846C150.282 53.4924 150.647 53.1671 151.065 52.93C151.483 52.6929 151.945 52.5492 152.42 52.5082C152.896 52.4672 153.374 52.5299 153.825 52.6922C156.511 53.7455 157.76 58.9387 157.631 61.5807C157.634 61.8143 157.041 65.3662 156.996 65.3357L156.943 65.3364C157.143 66.1514 157.359 67.0285 157.568 67.9991C157.94 69.7853 158.376 71.8043 158.648 74.0358C158.994 76.4353 159.204 78.8535 159.276 81.2781C159.374 83.995 159.238 86.7154 158.868 89.4069L158.869 89.5004C159.236 88.7165 160.338 86.5673 160.441 86.4178C161.921 84.2323 165.927 80.8902 168.678 81.7323C169.132 81.8852 169.55 82.1351 169.904 82.4656C170.258 82.7962 170.54 83.2001 170.733 83.6508C170.926 84.1016 171.025 84.5892 171.023 85.0818C171.021 85.5743 170.918 86.0608 170.721 86.5095C169.956 88.4438 167.746 89.6192 165.881 90.1278C163.791 90.6941 159.169 89.8779 158.798 89.8129C158.357 92.5406 157.739 95.2344 156.947 97.876C156.493 99.44 155.994 100.958 155.502 102.491C155.84 101.824 156.148 101.236 156.2 101.157C157.679 98.9719 161.693 95.6298 164.437 96.4719C164.891 96.625 165.308 96.8749 165.662 97.2053C166.017 97.5358 166.3 97.9393 166.493 98.3898C166.686 98.8403 166.786 99.3277 166.785 99.8203C166.784 100.313 166.683 100.8 166.487 101.249C165.714 103.191 163.512 104.359 161.64 104.867C159.768 105.376 155.805 104.769 154.761 104.589L154.151 106.349C153.149 109.167 152.138 111.969 151.249 114.746C150.93 115.724 150.649 116.702 150.368 117.679C150.67 117.091 150.927 116.597 150.971 116.526C152.45 114.34 156.464 110.998 159.208 111.84C159.661 111.994 160.078 112.245 160.431 112.576C160.785 112.906 161.067 113.31 161.26 113.761C161.452 114.211 161.551 114.698 161.55 115.19C161.548 115.683 161.446 116.169 161.251 116.618C160.478 118.552 158.275 119.727 156.403 120.236C154.531 120.745 150.954 120.187 149.713 119.986C149.456 120.994 149.19 122.002 149 122.994C148.874 123.674 148.702 124.322 148.613 125.009C148.524 125.696 148.405 126.367 148.301 127.03C148.146 128.325 147.983 129.66 147.865 130.931C147.771 131.812 147.7 132.654 147.629 133.496C147.94 132.518 148.585 130.617 148.651 130.46C149.68 128.38 151.209 126.608 153.092 125.313C153.195 125.076 153.324 124.853 153.476 124.646C153.743 124.239 154.091 123.894 154.496 123.635C154.902 123.376 155.355 123.208 155.828 123.142C156.3 123.076 156.781 123.114 157.239 123.252C157.697 123.39 158.121 123.627 158.485 123.946C160.625 125.926 159.989 131.23 158.943 133.652C158.877 133.793 158.045 135.261 157.469 136.18C157.87 135.691 158.255 135.211 158.671 134.714C159.487 133.722 160.327 132.752 161.233 131.712L162.601 130.229C163.055 129.732 163.592 129.257 164.09 128.759C165.26 127.637 166.497 126.553 167.773 125.5C166.933 124.733 163.953 122.087 163.173 120.291C162.394 118.494 161.771 115.995 162.704 114.136C162.908 113.691 163.201 113.295 163.564 112.975C163.927 112.655 164.351 112.417 164.809 112.277C165.267 112.137 165.748 112.098 166.222 112.162C166.696 112.227 167.151 112.394 167.558 112.652C169.965 114.278 170.107 119.626 169.433 122.182C169.39 122.339 168.705 124.116 168.311 125.08C169.057 124.454 169.841 123.82 170.64 123.209C172.947 121.441 175.331 119.725 177.707 118.01L179.866 116.423C179.568 116.162 175.993 113.065 175.06 111.037C174.235 109.25 173.665 106.742 174.598 104.883C174.802 104.438 175.095 104.042 175.458 103.721C175.821 103.401 176.246 103.163 176.704 103.024C177.162 102.885 177.644 102.847 178.117 102.913C178.591 102.978 179.046 103.147 179.452 103.406C181.852 105.024 182.001 110.381 181.327 112.929C181.277 113.117 180.286 115.677 180 116.312C181.592 115.137 183.16 113.932 184.66 112.727C186.699 111.078 188.63 109.293 190.442 107.382C190.305 107.26 186.562 104.04 185.606 101.997C184.781 100.217 184.211 97.7019 185.144 95.8432C185.348 95.3988 185.641 95.004 186.004 94.6844C186.366 94.3648 186.79 94.1276 187.247 93.9883C187.704 93.849 188.185 93.8107 188.658 93.8758C189.13 93.941 189.585 94.1082 189.991 94.3666C192.398 95.9922 192.547 101.341 191.866 103.889C191.816 104.092 190.752 106.841 190.524 107.319L190.852 106.995C192.617 105.028 194.209 102.902 195.609 100.644C196.4 99.4027 197.085 98.1783 197.732 96.9699C196.97 96.4431 193.54 93.9982 192.49 92.2447C191.439 90.4913 190.644 88.1346 191.372 86.1853C191.528 85.7195 191.777 85.2928 192.104 84.9331C192.43 84.5734 192.826 84.2886 193.266 84.0974C193.706 83.9062 194.181 83.8128 194.658 83.8233C195.136 83.8338 195.606 83.9479 196.038 84.1582C198.6 85.5013 199.315 90.8031 198.913 93.4177C198.915 93.5579 198.512 94.981 198.194 96.0056C198.473 95.4566 198.775 94.8916 199.039 94.3584C200.023 92.3588 200.796 90.4399 201.475 88.7872C201.854 87.824 202.205 86.9469 202.472 86.1254C201.984 85.2131 200.092 81.4853 199.935 79.478C199.779 77.4708 200.137 74.9502 201.65 73.5664C201.996 73.2275 202.408 72.9677 202.858 72.804C203.309 72.6402 203.787 72.576 204.263 72.6157C204.739 72.6555 205.202 72.7981 205.621 73.0344C206.041 73.2707 206.407 73.5954 206.697 73.9873C208.375 76.3941 206.641 81.4337 205.124 83.5654C204.99 83.7541 202.604 86.3806 202.581 86.3342L202.58 86.2797C202.319 87.0621 202.022 87.9307 201.68 88.8545C201.039 90.5534 200.296 92.4718 199.351 94.5021C198.358 96.7018 197.241 98.8393 196.005 100.904C194.639 103.225 193.07 105.413 191.319 107.44L191.252 107.511C192 107.065 194.045 105.915 194.247 105.835C196.618 104.836 201.773 104.352 203.631 106.624C203.928 107.01 204.143 107.456 204.261 107.933C204.38 108.41 204.4 108.907 204.319 109.393C204.239 109.878 204.061 110.341 203.796 110.75C203.531 111.159 203.185 111.506 202.781 111.768C201.107 112.967 198.62 112.659 196.808 112.022Z" fill="white" fill-opacity="0.91"/>
<path d="M159.007 76.5232C158.955 76.5239 159.714 73.0087 159.778 72.7897C160.612 70.2859 163.661 65.9602 166.53 66.0218C167.006 66.0464 167.473 66.1742 167.899 66.3969C168.325 66.6195 168.7 66.9321 169.002 67.3143C169.303 67.6964 169.523 68.1396 169.648 68.6151C169.772 69.0907 169.799 69.5878 169.725 70.0743C169.482 72.1572 167.635 73.8962 165.981 74.8848C164.035 76.0487 159.007 76.5232 159.007 76.5232Z" fill="white" fill-opacity="0.91"/>
</g>
<path d="M143.749 88.1371C143.749 82.386 151.589 75.6188 150.171 70.2894C148.695 64.7778 138.487 62.8704 135.698 58.0394C132.909 53.2084 136.283 43.3643 132.305 39.3864C128.328 35.4086 118.561 38.8401 113.654 36.0028C108.747 33.1656 106.945 23.0052 101.415 21.5291C96.086 20.1105 89.3482 27.9512 83.5688 27.9512C77.7894 27.9512 71.0515 20.1105 65.7226 21.5291C60.2116 23.0052 58.3043 33.2135 53.4737 36.0028C48.6432 38.7922 38.8 35.4181 34.8225 39.396C30.845 43.3739 34.2762 53.1413 31.4392 58.049C28.6022 62.9566 18.4428 64.7587 16.9668 70.2894C15.5195 75.6188 23.3883 82.386 23.3883 88.1371C23.3883 93.8883 15.5483 100.656 16.9668 105.985C18.4428 111.496 28.6501 113.404 31.4392 118.235C34.2283 123.066 30.8546 132.91 34.8321 136.888C38.8096 140.866 48.5761 137.434 53.4833 140.271C58.3905 143.109 60.1924 153.269 65.7226 154.745C71.0515 156.164 77.7894 148.323 83.5688 148.323C89.3482 148.323 96.086 156.164 101.415 154.745C106.926 153.269 108.833 143.061 113.664 140.271C118.494 137.482 128.338 140.856 132.315 136.878C136.293 132.9 132.861 123.133 135.698 118.225C138.535 113.318 148.695 111.516 150.171 105.985C151.618 100.656 143.749 93.8883 143.749 88.1371Z" fill="white"/>
<path d="M81.462 112.752L55.219 85.2908C54.6161 84.6568 54.2927 83.8121 54.3199 82.9424C54.3472 82.0727 54.7228 81.2493 55.3641 80.6534C56.0055 80.0575 56.8601 79.7378 57.7399 79.7647C58.6197 79.7916 59.4527 80.1629 60.0555 80.7968L80.6591 102.368L106.68 65.0775C106.916 64.6994 107.228 64.3728 107.596 64.1175C107.964 63.8621 108.381 63.6834 108.821 63.5922C109.261 63.501 109.715 63.4992 110.156 63.5869C110.597 63.6746 111.015 63.85 111.386 64.1023C111.756 64.3547 112.07 64.6788 112.31 65.055C112.549 65.4312 112.709 65.8516 112.779 66.2907C112.849 66.7298 112.828 67.1784 112.718 67.6092C112.607 68.04 112.409 68.4441 112.135 68.797L81.462 112.752Z" fill="#496664"/>
</g>
</svg>
