<svg width="325" height="40" viewBox="0 0 320 37" fill="none" xmlns="http://www.w3.org/2000/svg">
<path d="M15.0021 16L32.0021 0L39.002 8L37.502 9C38.302 10.2 36.1686 13.1667 35.002 14.5C34.502 14.6667 33.002 16.1 31.002 20.5C28.502 26 25.002 28.5 23.502 28.5C22.302 28.5 25.3353 21.8333 27.002 18.5C25.002 17.7 23.502 19.5 22.502 20.5C21.002 21.5 16.002 27.1667 13.502 30.5C13.002 31.6667 11.702 34.1 10.502 34.5C9.30195 34.9 9.00195 33.6667 9.00195 33C6.63131 36.3571 5.52301 37.0875 4.00195 35C3.33533 35.1667 1.70208 35.4 0.502079 35C-0.697921 34.6 9.66875 22.1667 15.0021 16Z" fill="url(#paint0_radial_0_1)"/>
<path d="M305.201 16L288.201 0L281.201 8L282.701 9C281.901 10.2 284.035 13.1667 285.201 14.5C285.701 14.6667 287.201 16.1 289.201 20.5C291.701 26 295.201 28.5 296.701 28.5C297.901 28.5 294.868 21.8333 293.201 18.5C295.201 17.7 296.701 19.5 297.701 20.5C299.201 21.5 304.201 27.1667 306.701 30.5C307.201 31.6667 308.501 34.1 309.701 34.5C310.901 34.9 311.201 33.6667 311.201 33C313.572 36.3571 314.68 37.0875 316.201 35C316.868 35.1667 318.501 35.4 319.701 35C320.901 34.6 310.534 22.1667 305.201 16Z" fill="url(#paint1_radial_0_1)"/>
<defs>
<radialGradient id="paint0_radial_0_1" cx="0" cy="0" r="1" gradientUnits="userSpaceOnUse" gradientTransform="translate(19.7041 18.0849) rotate(133.837) scale(24.8368 13.709)">
<stop stop-color="#0E5C6D"/>
<stop offset="1" stop-color="#0E5C6D" stop-opacity="0"/>
</radialGradient>
<radialGradient id="paint1_radial_0_1" cx="0" cy="0" r="1" gradientUnits="userSpaceOnUse" gradientTransform="translate(300.499 18.0849) rotate(46.1631) scale(24.8368 13.709)">
<stop stop-color="#0E5C6D"/>
<stop offset="1" stop-color="#0E5C6D" stop-opacity="0"/>
</radialGradient>
</defs>
</svg>
