<svg width="300" height="34" viewBox="0 0 86 34" fill="none" xmlns="http://www.w3.org/2000/svg">
<path d="M73.0003 1.00005L59.5003 0.500054C59.1006 0.485249 58.6669 3.49389 58.5 5.00005L59.0003 7.00005L60 10.0001C60.0001 10.3334 59.8003 11.6001 59.0003 14.0001C58.2003 16.4001 58.667 20.3334 59.0003 22.0001L62.5003 24.5001C63.5003 29.0001 63.5003 27.5001 63.5003 29.5001C63.5003 31.1001 65.5003 32.8334 66.5003 33.5001C74.3516 34.8809 86.1196 32.8125 85.0003 31.0001C84.7376 30.5746 85.0003 28.5001 85.0003 27.0001C85.0003 25.5001 83.0003 24.5001 82.0003 23.0001C81.2003 21.8001 79.0003 19.1667 78.0003 18.0001C76.5003 15.3334 73.4003 9.60005 73.0003 8.00005C72.6003 6.40005 72.8336 2.66672 73.0003 1.00005Z" fill="url(#paint0_radial_0_1)"/>
<path d="M12.722 1.49332L26.946 1.00005C27.3672 0.985448 27.8242 3.95356 28 5.43944L27.4729 7.4125L26.4195 10.3721C26.4194 10.7009 26.6299 11.9505 27.4729 14.3182C28.3158 16.6859 27.8241 20.5662 27.4729 22.2105L23.7851 24.6768C22.7315 29.1162 22.7315 27.6364 22.7315 29.6094C22.7315 31.1879 20.6242 32.8979 19.5706 33.5556C11.2982 34.9178 -1.10096 32.8773 0.078331 31.0892C0.355133 30.6695 0.078331 28.6229 0.078331 27.1431C0.078331 25.6633 2.1856 24.6768 3.23924 23.197C4.08215 22.0132 6.40014 19.4153 7.45378 18.2643C9.03423 15.6336 12.3005 9.97748 12.722 8.39903C13.1434 6.82058 12.8976 3.13754 12.722 1.49332Z" fill="url(#paint1_radial_0_1)"/>
<defs>
<radialGradient id="paint0_radial_0_1" cx="0" cy="0" r="1" gradientUnits="userSpaceOnUse" gradientTransform="translate(72 10) rotate(87.9904) scale(28.5175 20.5882)">
<stop stop-color="#0E5C6D"/>
<stop offset="5" stop-color="#0E5C6D" stop-opacity="0"/>
</radialGradient>
<radialGradient id="paint1_radial_0_1" cx="0" cy="0" r="1" gradientUnits="userSpaceOnUse" gradientTransform="translate(13.7759 10.372) rotate(92.1461) scale(28.1359 21.6906)">
<stop stop-color="#0E5C6D"/>
<stop offset="5" stop-color="#0E5C6D" stop-opacity="0"/>
</radialGradient>
</defs>
</svg>
