<svg width="76" height="72" viewBox="0 0 76 72" fill="none" xmlns="http://www.w3.org/2000/svg">
<path d="M6.50333 56C7.70333 60 8.00333 68 8.00333 71.5L21.5033 71C21.17 69.3333 20.5033 65.2 20.5033 62C20.5033 58 23.0033 46 23.0033 45C23.0033 44 26.5031 30.5 26.5033 29.5C26.5036 28.5 26.5033 16 26.0033 13.5C25.6033 11.5 26.17 4.33333 26.5033 1L3.00333 0.5C2.60333 1.3 2.17 3.5 2.00333 4.5C0.251422 9.56082 0.20816 28.0544 1.50333 33C2.01002 34.9348 3.17 42.5 4.00333 46C4.33666 47.6667 5.30333 52 6.50333 56Z" fill="url(#paint0_radial_0_1)"/>
<path d="M69.5982 56C68.3982 60 68.0982 68 68.0982 71.5L54.5982 71C54.9316 69.3333 55.5982 65.2 55.5982 62C55.5982 58 53.0982 46 53.0982 45C53.0982 44 49.5985 30.5 49.5982 29.5C49.598 28.5 49.5982 16 50.0982 13.5C50.4982 11.5 49.9316 4.33333 49.5982 1L73.0982 0.5C73.4982 1.3 73.9316 3.5 74.0982 4.5C75.8501 9.56082 75.8934 28.0544 74.5982 33C74.0915 34.9348 72.9316 42.5 72.0982 46C71.7649 47.6667 70.7982 52 69.5982 56Z" fill="url(#paint1_radial_0_1)"/>
<defs>
<radialGradient id="paint0_radial_0_1" cx="0" cy="0" r="1" gradientUnits="userSpaceOnUse" gradientTransform="translate(13.5524 36) rotate(89.4401) scale(46.0022 65.1132)">
<stop stop-color="#0E5C6D"/>
<stop offset="1" stop-color="#0E5C6D" stop-opacity="0"/>
</radialGradient>
<radialGradient id="paint1_radial_0_1" cx="0" cy="0" r="1" gradientUnits="userSpaceOnUse" gradientTransform="translate(62.5491 36) rotate(90.5599) scale(46.0022 65.1132)">
<stop stop-color="#0E5C6D"/>
<stop offset="1" stop-color="#0E5C6D" stop-opacity="0"/>
</radialGradient>
</defs>
</svg>
