<svg width="70" height="28" viewBox="0 0 70 28" fill="none" xmlns="http://www.w3.org/2000/svg">
<path d="M1 18C1 20.8 0.333333 25.5 0 27.5C7.5 27.6667 22.7 28 23.5 28C24.3 28 26.8333 17.6667 28 12.5V0.5H2.5V4C2.5 5 1 14.5 1 18Z" fill="url(#paint0_radial_0_1)"/>
<path d="M69 18C69 20.8 69.6667 25.5 70 27.5C62.5 27.6667 47.3 28 46.5 28C45.7 28 43.1667 17.6667 42 12.5V0.5H67.5V4C67.5 5 69 14.5 69 18Z" fill="url(#paint1_radial_0_1)"/>
<defs>
<radialGradient id="paint0_radial_0_1" cx="0" cy="0" r="1" gradientUnits="userSpaceOnUse" gradientTransform="translate(14 15.5) rotate(90) scale(20.5 21.4159)">
<stop stop-color="#0E5C6D"/>
<stop offset="0.912879" stop-color="#0E5C6D" stop-opacity="0"/>
</radialGradient>
<radialGradient id="paint1_radial_0_1" cx="0" cy="0" r="1" gradientUnits="userSpaceOnUse" gradientTransform="translate(56 15.5) rotate(90) scale(20.5 21.4159)">
<stop stop-color="#0E5C6D"/>
<stop offset="0.912879" stop-color="#0E5C6D" stop-opacity="0"/>
</radialGradient>
</defs>
</svg>
