<svg width="313" height="293" viewBox="0 0 313 293" fill="none" xmlns="http://www.w3.org/2000/svg">
<path fill-rule="evenodd" clip-rule="evenodd" d="M40.6384 51.9475C16.0318 54.874 -2.07676 77.2503 0.191899 101.926C2.46055 126.602 24.2473 144.234 48.854 141.307L52.1158 140.919C50.3369 146.552 49.6224 152.601 50.1919 158.795C52.4606 183.471 74.2473 201.103 98.854 198.176L272.314 177.546C296.92 174.62 315.029 152.244 312.76 127.568C310.492 102.892 288.705 85.2601 264.098 88.1866L260.836 88.5746C262.615 82.9416 263.33 76.8925 262.76 70.6984C260.492 46.0224 238.705 28.391 214.098 31.3175L40.6384 51.9475Z" fill="#0E5C6D" fill-opacity="0.3"/>
<rect x="20" y="141.475" width="137" height="38" rx="19" fill="#DF7861"/>
<rect x="10.75" y="78.2246" width="291.5" height="170.5" rx="15.25" stroke="black" stroke-width="1.5"/>
<line x1="10" y1="120.975" x2="303" y2="120.975" stroke="black"/>
<line x1="30" y1="160.975" x2="147" y2="160.975" stroke="black"/>
<line x1="212" y1="160.975" x2="284" y2="160.975" stroke="black"/>
<line x1="32" y1="210.975" x2="89" y2="210.975" stroke="black"/>
<line x1="13" y1="270.5" x2="207" y2="270.5" stroke="black"/>
<line x1="174" y1="292.5" x2="280" y2="292.5" stroke="black"/>
<line x1="39.3536" y1="5.35355" x2="19.3536" y2="25.3536" stroke="black"/>
<line x1="18.0316" y1="1.05443" x2="36.7183" y2="22.2867" stroke="black"/>
</svg>
